<svg xmlns="http://www.w3.org/2000/svg" width="99" height="100" viewBox="0 0 99 100">
  <g id="env2" transform="translate(-5.971 -5.684)">
    <g id="Group_4" data-name="Group 4" transform="translate(23.56 31.182)" opacity="0.25">
      <g id="Rectangle_1" data-name="Rectangle 1" transform="translate(0.412 -0.498)" fill="none" stroke="#000" stroke-width="5">
        <rect width="67" height="54" rx="6" stroke="none"/>
        <rect x="2.5" y="2.5" width="62" height="49" rx="3.5" fill="none"/>
      </g>
      <path id="Path_1" data-name="Path 1" d="M104.928,432.807,136.666,460.6l31.55-27.794" transform="translate(-102.832 -428.413)" fill="none" stroke="#000" stroke-width="5"/>
      <path id="Path_3" data-name="Path 3" d="M116.543,449.374l14.4,15.121" transform="translate(-74.105 -422.325)" fill="none" stroke="#000" stroke-linecap="round" stroke-width="5"/>
      <path id="Path_4" data-name="Path 4" d="M130.941,449.374l-14.4,15.121" transform="translate(-104.412 -422.984)" fill="none" stroke="#000" stroke-linecap="round" stroke-width="5"/>
    </g>
    <g id="Group_3" data-name="Group 3" transform="translate(20.172 27.947)">
      <g id="Rectangle_1-2" data-name="Rectangle 1" transform="translate(-0.201 -0.263)" fill="none" stroke="#fff" stroke-width="5">
        <rect width="68" height="54" rx="6" stroke="none"/>
        <rect x="2.5" y="2.5" width="63" height="49" rx="3.5" fill="none"/>
      </g>
      <path id="Path_1-2" data-name="Path 1" d="M104.928,432.807,136.666,460.6l31.55-27.794" transform="translate(-102.93 -428.826)" fill="none" stroke="#fff" stroke-width="5"/>
      <path id="Path_3-2" data-name="Path 3" d="M116.543,449.374l14.4,15.121" transform="translate(-74.203 -422.737)" fill="none" stroke="#fff" stroke-linecap="round" stroke-width="5"/>
      <path id="Path_4-2" data-name="Path 4" d="M130.941,449.374l-14.4,15.121" transform="translate(-104.51 -423.396)" fill="none" stroke="#fff" stroke-linecap="round" stroke-width="5"/>
    </g>
    <g id="Rectangle_16" data-name="Rectangle 16" transform="translate(6.971 6.684)" fill="none" stroke="#000" stroke-width="6" opacity="0.25">
      <rect width="98" height="99" rx="30" stroke="none"/>
      <rect x="3" y="3" width="92" height="93" rx="27" fill="none"/>
    </g>
    <g id="Rectangle_15" data-name="Rectangle 15" transform="translate(5.971 5.684)" fill="none" stroke="#fff" stroke-width="5">
      <rect width="96" height="97" rx="30" stroke="none"/>
      <rect x="2.5" y="2.5" width="91" height="92" rx="27.5" fill="none"/>
    </g>
  </g>
</svg>
