<svg xmlns="http://www.w3.org/2000/svg" width="93" height="61" viewBox="0 0 93 61">
  <g id="fbfooter" transform="translate(-897 -652)">
    <g id="fbicon" transform="translate(679.913 44.913)">
      <g id="Group_16" data-name="Group 16" transform="translate(239 613)">
        <g id="Path_9" data-name="Path 9" transform="translate(0.087 0.087)" fill="none">
          <path d="M15,0H35A15,15,0,0,1,50,15V35A15,15,0,0,1,35,50H15A15,15,0,0,1,0,35V15A15,15,0,0,1,15,0Z" stroke="none"/>
          <path d="M 15 3 C 11.79468154907227 3 8.781219482421875 4.248218536376953 6.514720916748047 6.514720916748047 C 4.248218536376953 8.781219482421875 3 11.79468154907227 3 15 L 3 35 C 3 38.205322265625 4.248218536376953 41.21878051757812 6.514720916748047 43.48527908325195 C 8.781219482421875 45.75178146362305 11.79468154907227 47 15 47 L 35 47 C 38.205322265625 47 41.21878051757812 45.75178146362305 43.48527908325195 43.48527908325195 C 45.75178146362305 41.21878051757812 47 38.205322265625 47 35 L 47 15 C 47 11.79468154907227 45.75178146362305 8.781219482421875 43.48527908325195 6.514720916748047 C 41.21878051757812 4.248218536376953 38.205322265625 3 35 3 L 15 3 M 15 0 L 35 0 C 43.28427124023438 0 50 6.715728759765625 50 15 L 50 35 C 50 43.28427124023438 43.28427124023438 50 35 50 L 15 50 C 6.715728759765625 50 0 43.28427124023438 0 35 L 0 15 C 0 6.715728759765625 6.715728759765625 0 15 0 Z" stroke="none" fill="#fff"/>
        </g>
        <g id="Group_12" data-name="Group 12" transform="translate(21.456 13.892)">
          <path id="Path_6" data-name="Path 6" d="M264.017,527.348s-.443-25.3,0-29.56,3.543-5.812,9.632-5.591" transform="translate(-254.717 -492.176)" fill="none" stroke="#fff" stroke-width="6"/>
          <path id="Path_8" data-name="Path 8" d="M248.722,509.485v5.4h18.087l1.058-5.4Z" transform="translate(-248.722 -498.778)" fill="#fff"/>
        </g>
      </g>
    </g>
    <g id="Rectangle_17" data-name="Rectangle 17" transform="translate(897 652)" fill="none" stroke="#fff" stroke-width="2">
      <rect width="93" height="61" rx="3" stroke="none"/>
      <rect x="1" y="1" width="91" height="59" rx="2" fill="none"/>
    </g>
  </g>
</svg>
