<svg xmlns="http://www.w3.org/2000/svg" width="70" height="70" viewBox="0 0 70 70">
  <g id="fbicon" transform="translate(-222 -604)">
    <g id="Group_15" data-name="Group 15" transform="translate(225.59 607.59)" opacity="0.3">
      <g id="Rectangle_19" data-name="Rectangle 19" transform="translate(0.41 0.41)" fill="none" stroke="#000" stroke-width="6">
        <rect width="66" height="66" rx="15" stroke="none"/>
        <rect x="3" y="3" width="60" height="60" rx="12" fill="none"/>
      </g>
      <g id="Group_12" data-name="Group 12" transform="translate(28.184 18.152)">
        <path id="Path_6" data-name="Path 6" d="M264.081,538.825s-.587-33.553,0-39.206,4.7-7.709,12.775-7.415" transform="translate(-251.746 -492.176)" fill="none" stroke="#000" stroke-width="8"/>
        <path id="Path_8" data-name="Path 8" d="M248.722,509.485v7.168H272.71l1.4-7.168Z" transform="translate(-248.722 -495.284)"/>
      </g>
    </g>
    <g id="Group_16" data-name="Group 16" transform="translate(222 604)">
      <g id="Rectangle_19-2" data-name="Rectangle 19" fill="none" stroke="#fff" stroke-width="6">
        <rect width="66" height="66" rx="15" stroke="none"/>
        <rect x="3" y="3" width="60" height="60" rx="12" fill="none"/>
      </g>
      <g id="Group_12-2" data-name="Group 12" transform="translate(28.184 18.152)">
        <path id="Path_6-2" data-name="Path 6" d="M264.081,538.825s-.587-33.553,0-39.206,4.7-7.709,12.775-7.415" transform="translate(-251.746 -492.176)" fill="none" stroke="#fff" stroke-width="8"/>
        <path id="Path_8-2" data-name="Path 8" d="M248.722,509.485v7.168H272.71l1.4-7.168Z" transform="translate(-248.722 -495.284)" fill="#fff"/>
      </g>
    </g>
  </g>
</svg>
