<svg xmlns="http://www.w3.org/2000/svg" width="52" height="86" viewBox="0 0 52 86">
  <g id="Group_15" data-name="Group 15" transform="translate(-73 -482)">
    <g id="phone" transform="translate(-28 145.857)" opacity="0.25">
      <g id="Group_9" data-name="Group 9" transform="translate(105 340)">
        <g id="Rectangle_7" data-name="Rectangle 7" transform="translate(0 0.143)" fill="none" stroke="#000" stroke-width="4">
          <rect width="48" height="82" rx="5" stroke="none"/>
          <rect x="2" y="2" width="44" height="78" rx="3" fill="none"/>
        </g>
        <path id="Path_5" data-name="Path 5" d="M77.719,356.427h44.45" transform="translate(-75.944 -348.284)" stroke="#000" stroke-width="2"/>
        <g id="Rectangle_8" data-name="Rectangle 8" transform="translate(17 3.143)" fill="none" stroke="#000" stroke-width="1">
          <rect width="15" height="5" rx="2" stroke="none"/>
          <rect x="0.5" y="0.5" width="14" height="4" rx="1.5" fill="none"/>
        </g>
        <g id="Rectangle_9" data-name="Rectangle 9" transform="translate(2 2.143)" stroke="#000" stroke-width="1">
          <rect width="16" height="5" stroke="none"/>
          <rect x="0.5" y="0.5" width="15" height="4" fill="none"/>
        </g>
        <g id="Rectangle_10" data-name="Rectangle 10" transform="translate(31 2.143)" stroke="#000" stroke-width="1">
          <rect width="16" height="5" stroke="none"/>
          <rect x="0.5" y="0.5" width="15" height="4" fill="none"/>
        </g>
        <g id="Ellipse_4" data-name="Ellipse 4" transform="translate(20 72.143)" fill="none" stroke="#000" stroke-width="1">
          <circle cx="3.5" cy="3.5" r="3.5" stroke="none"/>
          <circle cx="3.5" cy="3.5" r="3" fill="none"/>
        </g>
        <g id="Rectangle_11" data-name="Rectangle 11" transform="translate(2 72.143)" stroke="#000" stroke-width="1">
          <rect width="19" height="8" stroke="none"/>
          <rect x="0.5" y="0.5" width="18" height="7" fill="none"/>
        </g>
        <g id="Rectangle_12" data-name="Rectangle 12" transform="translate(26 72.143)" stroke="#000" stroke-width="1">
          <rect width="20" height="8" stroke="none"/>
          <rect x="0.5" y="0.5" width="19" height="7" fill="none"/>
        </g>
        <g id="Rectangle_13" data-name="Rectangle 13" transform="translate(21 72.143)" stroke="#000" stroke-width="1">
          <rect width="6" height="1" stroke="none"/>
          <rect x="0.5" y="0.5" width="5" fill="none"/>
        </g>
      </g>
    </g>
    <g id="phone-2" data-name="phone" transform="translate(-31 142.857)">
      <g id="Group_9-2" data-name="Group 9" transform="translate(104 339)">
        <g id="Rectangle_7-2" data-name="Rectangle 7" transform="translate(0 0.143)" fill="none" stroke="#fff" stroke-width="4">
          <rect width="48" height="82" rx="5" stroke="none"/>
          <rect x="2" y="2" width="44" height="78" rx="3" fill="none"/>
        </g>
        <path id="Path_5-2" data-name="Path 5" d="M77.719,356.427h44.45" transform="translate(-75.944 -348.284)" fill="none" stroke="#fff" stroke-width="2"/>
        <g id="Rectangle_8-2" data-name="Rectangle 8" transform="translate(17 3.143)" fill="none" stroke="#fff" stroke-width="1">
          <rect width="15" height="5" rx="2" stroke="none"/>
          <rect x="0.5" y="0.5" width="14" height="4" rx="1.5" fill="none"/>
        </g>
        <g id="Rectangle_9-2" data-name="Rectangle 9" transform="translate(2 2.143)" fill="#fff" stroke="#fff" stroke-width="1">
          <rect width="16" height="7" stroke="none"/>
          <rect x="0.5" y="0.5" width="15" height="6" fill="none"/>
        </g>
        <g id="Rectangle_10-2" data-name="Rectangle 10" transform="translate(31 2.143)" fill="#fff" stroke="#fff" stroke-width="1">
          <rect width="16" height="7" stroke="none"/>
          <rect x="0.5" y="0.5" width="15" height="6" fill="none"/>
        </g>
        <g id="Ellipse_4-2" data-name="Ellipse 4" transform="translate(20 72.143)" fill="none" stroke="#fff" stroke-width="1">
          <circle cx="3.5" cy="3.5" r="3.5" stroke="none"/>
          <circle cx="3.5" cy="3.5" r="3" fill="none"/>
        </g>
        <g id="Rectangle_11-2" data-name="Rectangle 11" transform="translate(2 72.143)" fill="#fff" stroke="#fff" stroke-width="1">
          <rect width="19" height="8" stroke="none"/>
          <rect x="0.5" y="0.5" width="18" height="7" fill="none"/>
        </g>
        <g id="Rectangle_12-2" data-name="Rectangle 12" transform="translate(26 72.143)" fill="#fff" stroke="#fff" stroke-width="1">
          <rect width="20" height="8" stroke="none"/>
          <rect x="0.5" y="0.5" width="19" height="7" fill="none"/>
        </g>
        <g id="Rectangle_13-2" data-name="Rectangle 13" transform="translate(21 72.143)" fill="#fff" stroke="#fff" stroke-width="1">
          <rect width="6" height="1" stroke="none"/>
          <rect x="0.5" y="0.5" width="5" fill="none"/>
        </g>
      </g>
    </g>
  </g>
</svg>
